<?xml version="1.0" standalone="no"?><!DOCTYPE svg PUBLIC "-//W3C//DTD SVG 1.1//EN" "http://www.w3.org/Graphics/SVG/1.1/DTD/svg11.dtd"><svg t="1669705021076" class="icon" viewBox="0 0 1024 1024" version="1.1" xmlns="http://www.w3.org/2000/svg" p-id="2685" xmlns:xlink="http://www.w3.org/1999/xlink" width="200" height="200"><path d="M514.226087 106.852174C233.73913 106.852174 0 449.669565 0 449.669565s229.286957 342.817391 512 342.817391c282.713043 0 512-342.817391 512-342.817391S794.713043 106.852174 514.226087 106.852174zM516.452174 663.373913c-117.982609 0-211.478261-95.721739-211.478261-211.478261s95.721739-211.478261 211.478261-211.478261 211.478261 95.721739 211.478261 211.478261S634.434783 663.373913 516.452174 663.373913z" p-id="2686"></path><path d="M514.226087 451.895652m-84.591304 0a3.8 3.8 0 1 0 169.182609 0 3.8 3.8 0 1 0-169.182609 0Z" p-id="2687"></path></svg>